<?xml version="1.0" standalone="no"?>
<!DOCTYPE svg PUBLIC "-//W3C//DTD SVG 20010904//EN"
 "http://www.w3.org/TR/2001/REC-SVG-20010904/DTD/svg10.dtd">
<svg version="1.0" xmlns="http://www.w3.org/2000/svg"
 width="115.000000pt" height="29.000000pt" viewBox="0 0 115.000000 29.000000"
 preserveAspectRatio="xMidYMid meet">

<g transform="translate(0.000000,29.000000) scale(0.100000,-0.100000)"
fill="#000000" stroke="none">
<path d="M845 220 c-41 -46 -24 -190 23 -190 11 0 13 3 5 8 -37 23 -44 135
-12 176 24 30 11 36 -16 6z"/>
<path d="M1079 214 c26 -32 28 -111 6 -154 -9 -17 -11 -30 -6 -30 19 0 41 58
41 105 0 46 -13 83 -34 97 -23 16 -27 7 -7 -18z"/>
<path d="M81 221 c-34 -22 -30 -132 7 -146 18 -7 52 26 52 51 0 8 5 14 10 14
6 0 10 -22 10 -50 0 -27 5 -50 10 -50 6 0 10 38 10 95 0 57 -4 95 -10 95 -5 0
-10 -13 -10 -30 0 -36 -17 -39 -29 -6 -11 26 -32 38 -50 27z m33 -46 c8 -32
-3 -77 -18 -72 -12 4 -21 61 -12 83 8 22 23 16 30 -11z"/>
<path d="M200 130 c0 -60 4 -100 10 -100 6 0 10 40 10 100 0 60 -4 100 -10
100 -6 0 -10 -40 -10 -100z"/>
<path d="M278 220 c-39 -23 -33 -123 8 -142 21 -10 28 -8 46 9 30 30 29 100
-2 125 -25 21 -29 21 -52 8z m48 -45 c9 -38 -3 -77 -24 -73 -17 3 -29 56 -18
84 9 23 35 16 42 -11z"/>
<path d="M390 130 c0 -60 4 -100 10 -100 6 0 10 40 10 100 0 60 -4 100 -10
100 -6 0 -10 -40 -10 -100z"/>
<path d="M510 209 c0 -11 -13 -34 -30 -51 -16 -16 -30 -31 -30 -34 0 -11 29
-2 48 17 l22 20 27 -20 c24 -20 53 -28 53 -15 0 3 -13 17 -30 31 -18 15 -30
34 -30 49 0 15 -6 24 -15 24 -9 0 -15 -9 -15 -21z"/>
<path d="M630 215 c0 -8 5 -15 10 -15 6 0 10 -11 10 -25 0 -14 -4 -25 -10 -25
-5 0 -10 -4 -10 -10 0 -6 27 -10 60 -10 33 0 60 4 60 10 0 6 -5 10 -11 10 -8
0 -9 13 -5 40 l6 40 -55 0 c-42 0 -55 -3 -55 -15z m70 -40 c0 -16 -6 -25 -15
-25 -9 0 -15 9 -15 25 0 16 6 25 15 25 9 0 15 -9 15 -25z"/>
<path d="M760 175 c0 -42 3 -55 15 -55 9 0 15 9 15 24 0 13 6 27 13 30 10 5
10 7 0 12 -7 3 -13 14 -13 25 0 10 -7 19 -15 19 -12 0 -15 -13 -15 -55z"/>
<path d="M900 220 c0 -5 11 -10 25 -10 34 0 31 -16 -6 -39 -19 -12 -26 -21
-20 -26 7 -3 27 3 46 14 22 12 37 16 41 10 8 -14 47 -28 57 -22 5 3 -5 14 -22
24 -37 23 -40 39 -6 39 14 0 25 5 25 10 0 6 -30 10 -70 10 -40 0 -70 -4 -70
-10z"/>
<path d="M880 110 c0 -5 18 -10 40 -10 39 0 40 -1 40 -35 0 -19 5 -35 10 -35
6 0 10 16 10 35 0 34 1 35 40 35 22 0 40 5 40 10 0 6 -37 10 -90 10 -53 0 -90
-4 -90 -10z"/>
<path d="M660 70 l0 -40 65 0 65 0 0 40 0 40 -65 0 -65 0 0 -40z m100 0 c0
-17 -7 -20 -40 -20 -33 0 -40 3 -40 20 0 17 7 20 40 20 33 0 40 -3 40 -20z"/>
<path d="M430 65 c0 -13 14 -15 93 -13 53 2 92 7 92 13 0 6 -39 11 -92 13 -79
2 -93 0 -93 -13z"/>
</g>
</svg>
