<?xml version="1.0" encoding="UTF-8" standalone="no"?>
<svg
   xmlns:dc="http://purl.org/dc/elements/1.1/"
   xmlns:cc="http://creativecommons.org/ns#"
   xmlns:rdf="http://www.w3.org/1999/02/22-rdf-syntax-ns#"
   xmlns:svg="http://www.w3.org/2000/svg"
   xmlns="http://www.w3.org/2000/svg"
   viewBox="0 0 445.70132 229.70132"
   height="229.70132"
   width="445.70132"
   xml:space="preserve"
   id="svg2"
   version="1.1"><metadata
     id="metadata8"><rdf:RDF><cc:Work
         rdf:about=""><dc:format>image/svg+xml</dc:format><dc:type
           rdf:resource="http://purl.org/dc/dcmitype/StillImage" /></cc:Work></rdf:RDF></metadata><defs
     id="defs6"><clipPath
       id="clipPath14"
       clipPathUnits="userSpaceOnUse"><path
         id="path12"
         d="M 0,0 H 595.276 V 595.276 H 0 Z" /></clipPath><clipPath
       id="clipPath22"
       clipPathUnits="userSpaceOnUse"><path
         id="path20"
         d="M 0,595.276 H 595.276 V 0 H 0 Z" /></clipPath><linearGradient
       id="linearGradient54"
       spreadMethod="pad"
       gradientTransform="matrix(1.0084057,-55.463734,-55.463734,-1.0084057,110.91595,265.78696)"
       gradientUnits="userSpaceOnUse"
       y2="0"
       x2="1"
       y1="0"
       x1="0"><stop
         id="stop48"
         offset="0"
         style="stop-opacity:1;stop-color:#2c2f67" /><stop
         id="stop50"
         offset="0.0642458"
         style="stop-opacity:1;stop-color:#2c2f67" /><stop
         id="stop52"
         offset="1"
         style="stop-opacity:1;stop-color:#4378bc" /></linearGradient><linearGradient
       id="linearGradient76"
       spreadMethod="pad"
       gradientTransform="matrix(1.0084064,-55.463776,-55.463776,-1.0084064,171.32097,266.88522)"
       gradientUnits="userSpaceOnUse"
       y2="0"
       x2="1"
       y1="0"
       x1="0"><stop
         id="stop70"
         offset="0"
         style="stop-opacity:1;stop-color:#2c2f67" /><stop
         id="stop72"
         offset="0.0642458"
         style="stop-opacity:1;stop-color:#2c2f67" /><stop
         id="stop74"
         offset="1"
         style="stop-opacity:1;stop-color:#4378bc" /></linearGradient><linearGradient
       id="linearGradient98"
       spreadMethod="pad"
       gradientTransform="matrix(1.0084112,-55.464039,-55.464039,-1.0084112,232.59364,267.99951)"
       gradientUnits="userSpaceOnUse"
       y2="0"
       x2="1"
       y1="0"
       x1="0"><stop
         id="stop92"
         offset="0"
         style="stop-opacity:1;stop-color:#2c2f67" /><stop
         id="stop94"
         offset="0.0642458"
         style="stop-opacity:1;stop-color:#2c2f67" /><stop
         id="stop96"
         offset="1"
         style="stop-opacity:1;stop-color:#4378bc" /></linearGradient><linearGradient
       id="linearGradient120"
       spreadMethod="pad"
       gradientTransform="matrix(1.0084062,-55.46376,-55.46376,-1.0084062,293.85178,269.11304)"
       gradientUnits="userSpaceOnUse"
       y2="0"
       x2="1"
       y1="0"
       x1="0"><stop
         id="stop114"
         offset="0"
         style="stop-opacity:1;stop-color:#2c2f67" /><stop
         id="stop116"
         offset="0.0642458"
         style="stop-opacity:1;stop-color:#2c2f67" /><stop
         id="stop118"
         offset="1"
         style="stop-opacity:1;stop-color:#4378bc" /></linearGradient><clipPath
       id="clipPath130"
       clipPathUnits="userSpaceOnUse"><path
         id="path128"
         d="M 0,595.276 H 595.276 V 0 H 0 Z" /></clipPath><linearGradient
       id="linearGradient180"
       spreadMethod="pad"
       gradientTransform="matrix(59.578999,0,0,-59.578999,146.0401,359.01709)"
       gradientUnits="userSpaceOnUse"
       y2="0"
       x2="1"
       y1="0"
       x1="0"><stop
         id="stop176"
         offset="0"
         style="stop-opacity:1;stop-color:#4378bc" /><stop
         id="stop178"
         offset="1"
         style="stop-opacity:1;stop-color:#2c2f67" /></linearGradient><linearGradient
       id="linearGradient202"
       spreadMethod="pad"
       gradientTransform="matrix(0,-122.42281,-122.42281,0,234.91249,408.00491)"
       gradientUnits="userSpaceOnUse"
       y2="0"
       x2="1"
       y1="0"
       x1="0"><stop
         id="stop196"
         offset="0"
         style="stop-opacity:1;stop-color:#2c2f67" /><stop
         id="stop198"
         offset="0.0642458"
         style="stop-opacity:1;stop-color:#2c2f67" /><stop
         id="stop200"
         offset="1"
         style="stop-opacity:1;stop-color:#4378bc" /></linearGradient><linearGradient
       id="linearGradient222"
       spreadMethod="pad"
       gradientTransform="matrix(43.376198,0,0,-43.376198,154.11119,339.55801)"
       gradientUnits="userSpaceOnUse"
       y2="0"
       x2="1"
       y1="0"
       x1="0"><stop
         id="stop218"
         offset="0"
         style="stop-opacity:1;stop-color:#4378bc" /><stop
         id="stop220"
         offset="1"
         style="stop-opacity:1;stop-color:#2c2f67" /></linearGradient><linearGradient
       id="linearGradient244"
       spreadMethod="pad"
       gradientTransform="matrix(0,-88.533028,-88.533028,0,218.15239,374.98474)"
       gradientUnits="userSpaceOnUse"
       y2="0"
       x2="1"
       y1="0"
       x1="0"><stop
         id="stop238"
         offset="0"
         style="stop-opacity:1;stop-color:#2c2f67" /><stop
         id="stop240"
         offset="0.0642458"
         style="stop-opacity:1;stop-color:#2c2f67" /><stop
         id="stop242"
         offset="1"
         style="stop-opacity:1;stop-color:#4378bc" /></linearGradient><linearGradient
       id="linearGradient264"
       spreadMethod="pad"
       gradientTransform="matrix(29.109899,0,0,-29.109899,162.6902,322.01544)"
       gradientUnits="userSpaceOnUse"
       y2="0"
       x2="1"
       y1="0"
       x1="0"><stop
         id="stop260"
         offset="0"
         style="stop-opacity:1;stop-color:#4378bc" /><stop
         id="stop262"
         offset="1"
         style="stop-opacity:1;stop-color:#2c2f67" /></linearGradient><linearGradient
       id="linearGradient286"
       spreadMethod="pad"
       gradientTransform="matrix(0,-57.981102,-57.981102,0,204.6469,345.21674)"
       gradientUnits="userSpaceOnUse"
       y2="0"
       x2="1"
       y1="0"
       x1="0"><stop
         id="stop280"
         offset="0"
         style="stop-opacity:1;stop-color:#2c2f67" /><stop
         id="stop282"
         offset="0.0642458"
         style="stop-opacity:1;stop-color:#2c2f67" /><stop
         id="stop284"
         offset="1"
         style="stop-opacity:1;stop-color:#4378bc" /></linearGradient></defs><g
     clip-path="url(#clipPath14)"
     transform="matrix(1.3333333,0,0,-1.3333333,-176.66667,593.03467)"
     id="g10"><g
       id="g16"><g
         clip-path="url(#clipPath22)"
         id="g18"><g
           transform="translate(332.1816,230.1408)"
           id="g24"><path
             id="path26"
             style="fill:#5f5e5e;fill-opacity:1;fill-rule:nonzero;stroke:none"
             d="m 0,0 c -0.279,0.679 -0.719,1.649 -1.323,2.91 -0.605,1.267 -1.068,2.22 -1.375,2.859 3.914,0.377 7.314,1.529 10.207,3.452 2.893,1.923 4.513,4.319 4.862,7.183 H -0.884 v 5.889 H 33.83 V 16.404 H 20.479 C 20.855,13.58 22.521,11.212 25.466,9.307 28.41,7.4 31.839,6.26 35.753,5.883 35.411,5.13 34.926,4.074 34.298,2.716 33.676,1.358 33.26,0.468 33.055,0.052 29.659,0.468 26.355,1.518 23.154,3.195 19.948,4.873 17.705,6.995 16.422,9.558 15.144,7.029 12.907,4.901 9.718,3.167 6.533,1.433 3.293,0.377 0,0 M 19.748,-26.144 H 12.941 V -9.169 H -4.416 v 5.997 H 37.419 V -9.169 H 19.748 Z" /></g><path
           id="path28"
           style="fill:#5f5e5e;fill-opacity:1;fill-rule:nonzero;stroke:none"
           d="m 411.225,224.818 h -7.018 v 29.653 h 7.018 z m -31.753,-1.981 h 31.804 v -18.84 h -6.91 v 12.958 h -24.894 z m 21.722,10.186 -3.692,-5.941 c -1.905,0.72 -3.862,2.009 -5.871,3.875 -2.008,1.871 -3.429,3.823 -4.262,5.86 -0.622,-2.265 -2.043,-4.462 -4.257,-6.596 -2.219,-2.128 -4.473,-3.611 -6.756,-4.44 l -3.537,5.883 c 3.463,1.284 6.157,3.31 8.079,6.083 1.923,2.773 2.887,6.008 2.887,9.705 v 4.131 h 7.019 v -3.731 c 0,-3.852 0.941,-6.989 2.83,-9.426 1.888,-2.431 4.41,-4.233 7.56,-5.403" /><path
           id="path30"
           style="fill:#5f5e5e;fill-opacity:1;fill-rule:nonzero;stroke:none"
           d="m 456.489,204.054 h -6.91 v 50.417 h 6.91 z m -19.126,25.009 c 0,1.021 -0.433,1.866 -1.295,2.545 -0.867,0.678 -1.94,1.021 -3.224,1.021 -1.283,0 -2.339,-0.343 -3.172,-1.021 -0.827,-0.679 -1.244,-1.524 -1.244,-2.545 0,-0.982 0.417,-1.792 1.244,-2.431 0.833,-0.644 1.889,-0.964 3.172,-0.964 1.284,0 2.357,0.32 3.224,0.964 0.862,0.639 1.295,1.449 1.295,2.431 m -11.012,22.971 h 13.352 v -5.598 h -13.352 z m 20.159,-13.295 h -27.279 v 5.604 h 27.279 z m -2.18,-9.676 c 0,-2.037 -0.719,-3.818 -2.157,-5.347 -1.438,-1.529 -3.372,-2.556 -5.797,-3.087 v -2.938 c 3.846,0.222 7.52,0.582 11.018,1.073 0.035,-0.417 0.08,-1.016 0.131,-1.809 0.051,-0.794 0.103,-1.512 0.155,-2.151 0.05,-0.639 0.113,-1.244 0.182,-1.809 -3.915,-0.605 -8.764,-1.113 -14.55,-1.529 -5.786,-0.417 -10.653,-0.622 -14.601,-0.622 -0.279,2.266 -0.52,4.353 -0.731,6.282 3.846,0 7.692,0.057 11.538,0.165 v 3.287 c -2.459,0.485 -4.428,1.518 -5.9,3.081 -1.472,1.564 -2.208,3.367 -2.208,5.404 0,2.487 1.067,4.582 3.195,6.282 2.134,1.694 4.878,2.545 8.239,2.545 3.361,0 6.117,-0.851 8.262,-2.545 2.151,-1.7 3.224,-3.795 3.224,-6.282" /><g
           transform="translate(498.8945,254.4709)"
           id="g32"><path
             id="path34"
             style="fill:#5f5e5e;fill-opacity:1;fill-rule:nonzero;stroke:none"
             d="m 0,0 v -18.732 h 6.442 v -6.112 H 0 V -50.417 H -6.756 V 0 Z m -8.21,-32.313 -3.949,-5.939 c -2.116,1.244 -4.239,3.104 -6.367,5.574 -2.134,2.471 -3.527,4.856 -4.183,7.156 -0.56,-2.528 -1.935,-5.199 -4.131,-8.005 -2.202,-2.814 -4.377,-4.799 -6.521,-5.969 l -4.263,5.603 c 3.948,2.562 6.812,5.723 8.599,9.478 1.786,3.748 2.675,8.324 2.675,13.717 v 6.567 h 7.121 v -6.282 c 0,-10.146 3.669,-17.448 11.019,-21.9" /></g></g></g><g
       id="g36"><g
         id="g38"><g
           id="g44"><g
             id="g46"><path
               id="path56"
               style="fill:url(#linearGradient54);stroke:none"
               d="m 128.72,202.505 h 8.689 v 67.966 h -8.689 z m -12.747,66.666 v -23.339 h -3.994 c -0.329,3.663 -0.97,6.903 -1.925,9.725 v 0 c -0.959,2.823 -2.431,5.201 -4.415,7.132 v 0 c -1.987,1.93 -4.356,2.899 -7.112,2.899 v 0 c -3.176,0 -5.838,-1.274 -7.984,-3.815 v 0 c -2.15,-2.543 -3.643,-5.578 -4.484,-9.113 v 0 c -0.84,-3.536 -1.26,-7.413 -1.26,-11.634 v 0 c 0,-4.326 0.42,-8.293 1.26,-11.9 v 0 c 0.841,-3.612 2.334,-6.714 4.484,-9.306 v 0 c 2.146,-2.593 4.808,-3.893 7.984,-3.893 v 0 c 2.848,0 5.291,1.044 7.321,3.128 v 0 c 2.032,2.084 3.515,4.641 4.45,7.667 v 0 c 0.931,3.025 1.541,6.443 1.82,10.26 v 0 h 3.855 v -31.35 h 8.545 v 63.539 z M 93.624,240.873 c 0,10.222 1.659,15.331 4.976,15.331 v 0 c 3.361,0 5.041,-5.109 5.041,-15.331 v 0 c 0,-10.172 -1.68,-15.256 -5.041,-15.256 v 0 c -3.317,0 -4.976,5.084 -4.976,15.256" /></g></g></g></g><g
       id="g58"><g
         id="g60"><g
           id="g66"><g
             id="g68"><path
               id="path78"
               style="fill:url(#linearGradient76);stroke:none"
               d="m 187.355,202.505 h 9.247 v 67.966 h -9.247 z m -36.534,56.791 c -2.919,-4.554 -4.378,-10.463 -4.378,-17.741 v 0 c 0,-7.166 1.473,-13.014 4.414,-17.538 v 0 c 2.942,-4.529 6.91,-6.79 11.908,-6.79 v 0 c 5.091,0 9.108,2.261 12.05,6.79 v 0 c 2.942,4.524 4.414,10.372 4.414,17.538 v 0 c 0,7.278 -1.472,13.187 -4.414,17.741 v 0 c -2.942,4.55 -6.959,6.826 -12.05,6.826 v 0 c -5.044,0 -9.024,-2.276 -11.944,-6.826 m 6.552,-29.216 c -1.401,2.719 -2.102,6.544 -2.102,11.475 v 0 c 0,4.99 0.701,8.842 2.102,11.563 v 0 c 1.4,2.719 3.196,4.079 5.392,4.079 v 0 c 2.335,0 4.216,-1.349 5.639,-4.043 v 0 c 1.426,-2.696 2.138,-6.557 2.138,-11.599 v 0 c 0,-4.982 -0.712,-8.822 -2.138,-11.517 v 0 c -1.423,-2.695 -3.304,-4.04 -5.639,-4.04 v 0 c -2.196,0 -3.992,1.361 -5.392,4.082" /></g></g></g></g><g
       id="g80"><g
         id="g82"><g
           id="g88"><g
             id="g90"><path
               id="path100"
               style="fill:url(#linearGradient98);stroke:none"
               d="m 228.546,265.74 v -4.043 c 0,-5.849 -2.232,-10.821 -6.692,-14.912 v 0 c -4.46,-4.096 -9.469,-6.523 -15.024,-7.287 v 0 c 0.511,-1.066 1.283,-2.568 2.309,-4.499 v 0 c 1.026,-1.935 1.659,-3.152 1.893,-3.662 v 0 c 4.529,1.019 9.002,3.153 13.415,6.408 v 0 c 4.412,3.252 7.413,7.17 9.002,11.75 v 0 c 1.635,-4.58 4.705,-8.509 9.213,-11.791 v 0 c 4.506,-3.28 8.975,-5.404 13.412,-6.367 v 0 l 4.135,8.161 c -5.652,0.815 -10.682,3.258 -15.098,7.327 v 0 c -4.41,4.066 -6.618,9.023 -6.618,14.872 v 0 4.043 z m -23.189,-54.541 h 56.392 v 8.009 h -56.392 z" /></g></g></g></g><g
       id="g102"><g
         id="g104"><g
           id="g110"><g
             id="g112"><path
               id="path122"
               style="fill:url(#linearGradient120);stroke:none"
               d="m 305.602,270.471 v -40.886 h 9.318 v 15.866 h 8.405 v 8.161 h -8.405 v 16.859 z m -38.389,-13.197 h 32.506 v 8.008 h -32.506 z m 19.475,-7.02 c -0.094,-1.574 -0.199,-3.317 -0.316,-5.222 v 0 c -0.117,-1.91 -0.198,-3.4 -0.244,-4.465 v 0 l -2.661,-0.229 c -1.17,0 -2.079,-0.025 -2.735,-0.076 v 0 c -0.045,1.577 -0.139,3.982 -0.279,7.211 v 0 c -0.141,3.229 -0.234,5.654 -0.28,7.284 v 0 c -2.148,-0.152 -5.112,-0.432 -8.898,-0.84 v 0 l 1.473,-13.655 c -3.737,0 -6.258,0.025 -7.565,0.076 v 0 c 0.466,-3.662 0.841,-6.433 1.12,-8.313 v 0 c 16.346,0 28.605,0.611 36.778,1.828 v 0 c -0.047,0.51 -0.154,1.667 -0.316,3.47 v 0 c -0.163,1.808 -0.316,3.194 -0.455,4.157 v 0 c -1.356,-0.154 -4.017,-0.331 -7.986,-0.529 v 0 l 1.47,13.195 c -0.98,0.052 -2.451,0.153 -4.412,0.306 v 0 c -1.961,0.153 -3.433,0.254 -4.413,0.305 v 0 c -0.095,-1.426 -0.187,-2.924 -0.281,-4.503 m -12.89,-46.909 h 41.122 v 23.719 h -41.122 z m 9.317,16.092 h 22.487 v -8.39 h -22.487 z" /></g></g></g></g><g
       id="g124"><g
         clip-path="url(#clipPath130)"
         id="g126"><g
           transform="translate(306.4287,353.3381)"
           id="g132"><path
             id="path134"
             style="fill:#5f5e5e;fill-opacity:1;fill-rule:nonzero;stroke:none"
             d="m 0,0 -5.492,15.774 c -0.18,0.517 -0.357,1.344 -0.536,2.479 h -0.097 c -0.163,-1.05 -0.351,-1.877 -0.562,-2.479 L -12.13,0 Z M 9.592,-14.276 H 5.053 L 1.341,-3.897 h -14.838 l -3.489,-10.379 h -4.565 l 13.423,37.023 h 4.248 z" /></g><g
           transform="translate(343.9932,340.6115)"
           id="g136"><path
             id="path138"
             style="fill:#5f5e5e;fill-opacity:1;fill-rule:nonzero;stroke:none"
             d="m 0,0 c -2.591,-1.447 -5.809,-2.168 -9.666,-2.168 -4.98,0 -8.97,1.694 -11.959,5.086 -2.996,3.39 -4.493,7.837 -4.493,13.346 0,5.92 1.685,10.704 5.052,14.353 3.367,3.649 7.64,5.475 12.815,5.475 3.321,0 6.065,-0.508 8.251,-1.523 v -4.622 c -2.511,1.481 -5.272,2.22 -8.302,2.22 -4.017,0 -7.275,-1.418 -9.774,-4.26 -2.499,-2.839 -3.743,-6.633 -3.743,-11.386 0,-4.507 1.164,-8.102 3.498,-10.778 2.339,-2.676 5.397,-4.014 9.192,-4.014 3.515,0 6.556,0.827 9.129,2.479 z" /></g><g
           transform="translate(370.668,339.0622)"
           id="g140"><path
             id="path142"
             style="fill:#5f5e5e;fill-opacity:1;fill-rule:nonzero;stroke:none"
             d="M 0,0 H -18.55 V 37.022 H -0.782 V 33.097 H -14.453 V 20.784 h 12.644 v -3.9 H -14.453 V 3.923 H 0 Z" /></g><g
           transform="translate(290.1416,321.6482)"
           id="g144"><path
             id="path146"
             style="fill:#5f5e5e;fill-opacity:1;fill-rule:nonzero;stroke:none"
             d="m 0,0 v -15.18 h 4.296 c 2.83,0 4.993,0.684 6.479,2.054 1.49,1.366 2.234,3.298 2.234,5.794 C 13.009,-2.445 10.276,0 4.81,0 Z M 0,-19.103 V -33.096 H -4.1 V 3.926 h 9.618 c 3.74,0 6.641,-0.965 8.701,-2.893 2.056,-1.929 3.087,-4.648 3.087,-8.157 0,-3.512 -1.144,-6.387 -3.429,-8.624 -2.288,-2.237 -5.376,-3.355 -9.264,-3.355 z" /></g><g
           transform="translate(341.3457,288.552)"
           id="g148"><path
             id="path150"
             style="fill:#5f5e5e;fill-opacity:1;fill-rule:nonzero;stroke:none"
             d="m 0,0 h -4.097 v 16.883 h -18.11 V 0 h -4.103 v 37.022 h 4.103 V 20.783 h 18.11 V 37.022 H 0 Z" /></g><g
           transform="translate(369.0186,302.8274)"
           id="g152"><path
             id="path154"
             style="fill:#5f5e5e;fill-opacity:1;fill-rule:nonzero;stroke:none"
             d="m 0,0 -5.488,15.774 c -0.183,0.516 -0.361,1.344 -0.537,2.479 h -0.097 c -0.165,-1.05 -0.354,-1.877 -0.565,-2.479 L -12.13,0 Z M 9.592,-14.275 H 5.056 L 1.341,-3.897 h -14.835 l -3.492,-10.378 h -4.565 l 13.426,37.022 h 4.245 z" /></g><g
           transform="translate(388.8633,321.6482)"
           id="g156"><path
             id="path158"
             style="fill:#5f5e5e;fill-opacity:1;fill-rule:nonzero;stroke:none"
             d="m 0,0 v -13.426 h 5.563 c 1.028,0 1.975,0.166 2.848,0.491 0.867,0.328 1.62,0.796 2.254,1.409 0.633,0.611 1.129,1.358 1.489,2.245 0.36,0.888 0.536,1.881 0.536,2.982 0,1.98 -0.605,3.523 -1.814,4.633 C 9.66,-0.553 7.909,0 5.615,0 Z m 20.986,-33.096 h -4.879 l -5.859,10.378 c -0.536,0.965 -1.056,1.786 -1.558,2.465 -0.507,0.679 -1.021,1.235 -1.551,1.666 -0.532,0.428 -1.096,0.745 -1.706,0.942 -0.611,0.197 -1.301,0.296 -2.066,0.296 H 0 V -33.096 H -4.103 V 3.926 H 6.346 c 1.528,0 2.943,-0.203 4.233,-0.608 1.295,-0.405 2.419,-1.021 3.366,-1.846 0.953,-0.827 1.701,-1.854 2.237,-3.084 0.537,-1.232 0.804,-2.673 0.804,-4.325 0,-1.292 -0.182,-2.476 -0.548,-3.549 -0.365,-1.078 -0.889,-2.037 -1.562,-2.879 -0.674,-0.844 -1.489,-1.563 -2.442,-2.156 -0.954,-0.594 -2.021,-1.056 -3.207,-1.381 v -0.103 c 0.582,-0.277 1.095,-0.59 1.523,-0.944 0.434,-0.351 0.845,-0.77 1.232,-1.253 0.394,-0.482 0.777,-1.027 1.159,-1.637 0.382,-0.611 0.81,-1.321 1.284,-2.131 z" /></g><g
           transform="translate(451.3369,288.552)"
           id="g160"><path
             id="path162"
             style="fill:#5f5e5e;fill-opacity:1;fill-rule:nonzero;stroke:none"
             d="m 0,0 h -4.074 v 24.834 c 0,1.963 0.114,4.365 0.343,7.204 H -3.829 C -4.223,30.369 -4.57,29.173 -4.879,28.449 L -16.838,0 h -2.003 l -11.93,28.244 c -0.343,0.824 -0.697,2.09 -1.05,3.794 h -0.098 c 0.126,-1.481 0.194,-3.897 0.194,-7.255 V 0 h -3.954 v 37.022 h 5.415 l 10.739,-25.819 c 0.833,-1.977 1.369,-3.461 1.614,-4.442 h 0.142 c 0.703,2.031 1.262,3.549 1.69,4.548 L -5.124,37.022 H 0 Z" /></g></g></g><g
       id="g164"><g
         id="g166"><g
           id="g172"><g
             id="g174"><path
               id="path182"
               style="fill:url(#linearGradient180);stroke:none"
               d="m 203.551,429.311 h -0.523 c -0.843,-0.064 -2.489,-0.461 -3.296,-2.513 v 0 L 146.04,288.724 h 0.703 l 58.876,140.587 z" /></g></g></g></g><g
       id="g184"><g
         id="g186"><g
           id="g192"><g
             id="g194"><path
               id="path204"
               style="fill:url(#linearGradient202);stroke:none"
               d="m 203.551,429.311 h -0.523 c -0.512,-0.039 -1.321,-0.201 -2.057,-0.782 v 0 l 4.454,-13.315 43.456,-126.49 h 20.235 l -46.808,138.398 c -0.429,0.894 -1.469,2.189 -3.9,2.189 v 0 z" /></g></g></g></g><g
       id="g206"><g
         id="g208"><g
           id="g214"><g
             id="g216"><path
               id="path224"
               style="fill:url(#linearGradient222);stroke:none"
               d="M 193.826,390.393 154.111,288.724 h 0.689 l 42.687,101.669 z" /></g></g></g></g><g
       id="g226"><g
         id="g228"><g
           id="g234"><g
             id="g236"><path
               id="path246"
               style="fill:url(#linearGradient244);stroke:none"
               d="m 200.37,390.393 h -6.345 l 3.516,-10.756 30.525,-90.913 h 14.214 l -34.158,101.669 z" /></g></g></g></g><g
       id="g248"><g
         id="g250"><g
           id="g256"><g
             id="g258"><path
               id="path266"
               style="fill:url(#linearGradient264);stroke:none"
               d="M 189.214,355.307 162.69,288.724 h 0.664 l 28.446,66.583 z" /></g></g></g></g><g
       id="g268"><g
         id="g270"><g
           id="g276"><g
             id="g278"><path
               id="path288"
               style="fill:url(#linearGradient286);stroke:none"
               d="m 193.249,355.307 h -4.035 l 2.066,-7.694 19.226,-58.889 h 9.574 l -21.401,66.583 z" /></g></g></g></g></g></svg>